<svg version="1.2" xmlns="http://www.w3.org/2000/svg" viewBox="0 0 200 130" width="200" height="130">
	<title>no-search-svg</title>
	<style>
		.s0 { fill: #999999 } 
	</style>
	<path id="Layer" fill-rule="evenodd" class="s0" d="m161.3 107c0 0.7-0.6 1.3-1.3 1.3h-33.4v4.1c0 1.7-0.4 3.3-1.2 4.7l-1.2 2h3.8c0.7 0 1.3 0.6 1.3 1.3 0 0.7-0.6 1.3-1.3 1.3h-16.4l1.2 2.1c0.9 1.6 0.7 3.6-0.6 4.9-0.7 0.8-1.8 1.2-2.8 1.2-1 0-2.1-0.5-2.8-1.2l-6.9-6.9h-67.7c-0.3 0-0.7-0.2-0.9-0.4-0.3-0.2-0.4-0.6-0.4-0.9 0-0.7 0.6-1.3 1.3-1.3h14.4l-1.2-2c-0.8-1.5-1.2-3.1-1.2-4.7v-77.7c0-2.5 1-4.8 2.8-6.6 1.8-1.7 4.1-2.7 6.6-2.7h9.3v-4.1c0-2.5 0.9-4.8 2.7-6.6 1.8-1.7 4.1-2.7 6.6-2.7h64c2.5 0 4.9 1 6.6 2.7 1.7 1.8 2.7 4.1 2.7 6.6v77.9c0 1.7-0.4 3.3-1.2 4.7l-1.2 2h17.1c0.7 0 1.3 0.5 1.3 1zm-37.3-72.2c0-3.6-2.9-6.6-6.5-6.6h-64.4c-3.6 0-6.5 3-6.5 6.6v78c0 3.7 3 6.7 6.7 6.7h43.7l-3.7-3.7c-1-1-1.4-2.5-1-3.9l0.2-0.8-3.9-3.9-0.9 0.7c-7.2 5.4-17.5 4.2-23.4-2.6-5.9-6.9-5.6-17.3 0.8-23.7 6.4-6.5 16.8-6.9 23.6-0.9 6.8 6 7.9 16.3 2.5 23.6l-0.7 0.9 3.9 3.9 0.8-0.2c1.3-0.4 2.8 0 3.8 1l9.3 9.4h9c3.7 0 6.7-3 6.7-6.7 0 0 0-77.8 0-77.8zm-32 59.1c0-3.9-1.5-7.6-4.3-10.4-2.8-2.8-6.5-4.3-10.4-4.3-3.9 0-7.6 1.5-10.4 4.3-2.8 2.7-4.3 6.5-4.3 10.4 0 3.9 1.5 7.6 4.3 10.4 2.9 2.9 6.6 4.3 10.4 4.3 3.8 0 7.5-1.4 10.4-4.3 2.8-2.8 4.3-6.5 4.3-10.4zm50.7-72.3c0-3.7-3-6.7-6.7-6.7h-64c-3.7 0-6.7 3-6.7 6.7v4h52c2.5 0 4.9 1 6.6 2.7 1.7 1.8 2.7 4.1 2.7 6.6v71h9.4c3.7 0 6.7-3 6.7-6.7zm-120.2 99.1c0 0.7-0.6 1.3-1.3 1.3h-16c-0.3 0-0.7-0.2-0.9-0.4-0.3-0.2-0.4-0.5-0.4-0.9 0-0.7 0.6-1.3 1.3-1.3h16c0.8 0 1.3 0.6 1.3 1.3z"/>
	<path id="Layer" fill-rule="evenodd" class="s0" d="m60.4 41.2c-0.3-0.2-0.4-0.6-0.4-0.9 0-0.7 0.6-1.3 1.3-1.3h29.3c0.7 0 1.3 0.6 1.3 1.3 0 0.7-0.6 1.3-1.3 1.3h-29.3c-0.3 0-0.7-0.1-0.9-0.4zm44.9 12.5c0 0.7-0.6 1.3-1.3 1.3h-42.7c-0.3 0-0.7-0.2-0.9-0.4-0.3-0.2-0.4-0.5-0.4-0.9 0-0.7 0.6-1.3 1.3-1.3h42.7c0.7 0 1.3 0.6 1.3 1.3zm-24 13.4c0 0.7-0.6 1.3-1.3 1.3h-18.7c-0.3 0-0.7-0.2-0.9-0.4-0.3-0.2-0.4-0.5-0.4-0.9 0-0.7 0.6-1.3 1.3-1.3h18.7c0.7 0 1.2 0.5 1.3 1.3zm-61.3 22.8h2.7c0.7 0 1.3 0.6 1.3 1.3 0 0.7-0.6 1.3-1.3 1.3h-2.7v2.7c0 0.7-0.6 1.3-1.3 1.3-0.4 0-0.7-0.1-0.9-0.4-0.3-0.2-0.4-0.6-0.4-0.9v-2.7h-2.7c-0.7 0-1.3-0.6-1.3-1.3 0-0.7 0.6-1.3 1.3-1.3h2.7v-2.7c0-0.7 0.6-1.3 1.3-1.3 0.7 0 1.3 0.6 1.3 1.3 0 0 0 2.7 0 2.7zm178.7-10.8c0.7 0 1.3 0.6 1.3 1.3 0 0.7-0.6 1.3-1.3 1.3h-2.7v2.7c0 0.7-0.6 1.3-1.3 1.3-0.7 0-1.3-0.6-1.3-1.3v-2.7h-2.7c-0.7 0-1.3-0.6-1.3-1.3 0-0.3 0.2-0.6 0.4-0.9 0.2-0.3 0.5-0.4 0.9-0.4h2.7v-2.7c0-0.7 0.6-1.3 1.3-1.3 0.3 0 0.6 0.2 0.9 0.4 0.3 0.2 0.4 0.5 0.4 0.9v2.7zm-164.7-73h4c1.1 0 2 0.9 2 2 0 1.1-0.9 2-2 2h-4v4c0 1.1-0.9 2-2 2-0.5 0-1-0.2-1.4-0.6q-0.6-0.6-0.6-1.5v-4h-4c-0.5 0-1-0.2-1.4-0.6-0.4-0.3-0.6-0.8-0.6-1.4 0-1.1 0.9-2 2-2h4v-4c0-1.1 0.9-2 2-2 1.1 0 2 0.9 2 2zm-18.1 36.8c0 4.4-3.6 8-8 8-2.8 0-5.5-1.5-6.9-4-1.4-2.4-1.4-5.5 0-8 1.4-2.5 4-4 6.9-4 4.4 0 8 3.6 8 8zm-4.5-1.9c-0.8-1.2-2.1-2-3.5-2-2.2 0-4 1.8-4 4 0 2.2 1.8 4 4 4 1.5 0 2.8-0.8 3.5-2 0.7-1.3 0.7-2.8 0-4zm169.9-14.1c0 4.4-3.6 8-8 8-2.8 0-5.5-1.5-6.9-4-1.4-2.4-1.4-5.5 0-8 1.4-2.5 4-4 6.9-4 4.5 0 8 3.6 8 8zm-4.5-2c-0.7-1.2-2.1-2-3.5-2-2.2 0-4 1.8-4 4 0 2.2 1.8 4 4 4 1.5 0 2.8-0.8 3.5-2 0.7-1.2 0.7-2.8 0-4z"/>
</svg>